<svg width="20" height="18" viewBox="0 0 20 18" fill="none" xmlns="http://www.w3.org/2000/svg">
<path d="M12.75 16.75C12.75 14.5409 10.0637 12.75 6.75 12.75C3.43629 12.75 0.75 14.5409 0.75 16.75M14.5781 2.92188C14.9496 3.29331 15.2442 3.73427 15.4452 4.21957C15.6462 4.70487 15.7499 5.22533 15.7499 5.75062C15.7499 6.27591 15.6463 6.79497 15.4453 7.28027C15.2443 7.76558 14.9496 8.20705 14.5781 8.57848M16.75 0.75C17.4066 1.40661 17.9275 2.18612 18.2828 3.04402C18.6382 3.90192 18.8218 4.82127 18.8218 5.74985C18.8218 6.67844 18.6386 7.59815 18.2832 8.45605C17.9278 9.31396 17.4066 10.0935 16.75 10.7501M6.75 9.75C4.54086 9.75 2.75 7.95914 2.75 5.75C2.75 3.54086 4.54086 1.75 6.75 1.75C8.95914 1.75 10.75 3.54086 10.75 5.75C10.75 7.95914 8.95914 9.75 6.75 9.75Z" stroke="#686868" stroke-width="1.5" stroke-linecap="round" stroke-linejoin="round"/>
</svg>
